<?xml version="1.0" encoding="utf-8"?>
<!-- Generator: Adobe Illustrator 19.0.0, SVG Export Plug-In . SVG Version: 6.00 Build 0)  -->
<svg version="1.1" id="Layer_1" xmlns="http://www.w3.org/2000/svg" xmlns:xlink="http://www.w3.org/1999/xlink" x="0px" y="0px"
	 viewBox="0 0 500 500" style="enable-background:new 0 0 500 500;" xml:space="preserve">
<style type="text/css">
	.st0{fill:#FF0090;}
	.st1{fill:url(#SVGID_1_);}
	.st2{fill:url(#SVGID_2_);}
	.st3{filter:url(#Adobe_OpacityMaskFilter);}
	.st4{filter:url(#Adobe_OpacityMaskFilter_1_);}
	.st5{mask:url(#SVGID_3_);fill:url(#SVGID_4_);}
	.st6{fill:url(#SVGID_5_);}
	.st7{filter:url(#Adobe_OpacityMaskFilter_2_);}
	.st8{filter:url(#Adobe_OpacityMaskFilter_3_);}
	.st9{mask:url(#SVGID_6_);fill:url(#SVGID_7_);}
	.st10{fill:url(#SVGID_8_);}
</style>
<g id="XMLID_1_">
	<path class="st0" d="M95.3,298.5C76.6,199.1,126,103.1,239.5,90.4c-15.6-16.7-37-16.8-46.9-14.8c-17.4,5.5-16.8,16.8-36.5,31.3
		c-19.6,11.2-29.4,2.6-43.7,14.2c-14.2,11.5-4.3,37.9-10.3,43.1c-5.9,10.3-24.3,19.4-27.7,32.4c-2.8,16.6,7.5,28.4,7.1,42.7
		c1.2,11.9-11.8,18.6-9.9,28.2c5.6,15.7,16.4,25.1,21.4,29.5C94.3,297.7,95.5,299.7,95.3,298.5L95.3,298.5z"/>
	
		<radialGradient id="SVGID_1_" cx="-704.2173" cy="788.0643" r="1.2852" gradientTransform="matrix(214.0468 0 0 -153.1175 151062.8438 120839.7344)" gradientUnits="userSpaceOnUse">
		<stop  offset="0" style="stop-color:#F80090"/>
		<stop  offset="1" style="stop-color:#4D008E"/>
	</radialGradient>
	<path class="st1" d="M297.2,160.9c-4.1,0-7.5-3.4-7.5-7.5c0-4.1,3.4-7.5,7.5-7.5c4.1,0,7.5,3.4,7.5,7.5
		C304.7,157.5,301.3,160.9,297.2,160.9L297.2,160.9z M99.6,309.4c-18-86.4,37.7-158.7,145.4-123.1c63.2,37,142.7,34.6,146.3,10.7
		c8.9-28.7-40.3-87.7-113.8-103.1C131.8,65.4,53.2,222.9,99.6,309.4L99.6,309.4z"/>
	
		<radialGradient id="SVGID_2_" cx="-704.726" cy="788.7743" r="1.1688" gradientTransform="matrix(238.5784 0 0 -180.475 168462.2031 142533.2188)" gradientUnits="userSpaceOnUse">
		<stop  offset="0" style="stop-color:#57008E"/>
		<stop  offset="0.2917" style="stop-color:#5C008E"/>
		<stop  offset="1" style="stop-color:#F80090"/>
	</radialGradient>
	<path class="st2" d="M338.8,319c21.6,2.3,42.2-2.9,61.2-18.4c-28.8,32.1-64.7,48.2-106,52.6c19.7,16.8,38.7,24.3,56.9,21.1
		c-50.5,13.9-92.9-1.4-144.3-52.7c-2.7,13.8,11.9,35.3,26.9,49c-87.2-37.8-94.8-155.6,11.5-184.5c-110.2-53-172.5,49.9-141.9,134.3
		c30,64.9,109.8,114.9,197.3,104c42.5-5.2,106-34.5,131.9-104c-18.3,16.4-50.9,30.7-65.5,31.8c49.3-24.7,76-66.5,68.5-123.8
		c-10.2,24.3-23.7,43-40.6,55.8c35.8-55.8,29.7-84.7,3.2-116.4C416.8,220,392.2,277.9,338.8,319L338.8,319z"/>
	<defs>
		<filter id="Adobe_OpacityMaskFilter" filterUnits="userSpaceOnUse" x="206.3" y="321.7" width="107.2" height="85.5">
			<feFlood  style="flood-color:white;flood-opacity:1" result="back"/>
			<feBlend  in="SourceGraphic" in2="back" mode="normal"/>
		</filter>
	</defs>
	<mask maskUnits="userSpaceOnUse" x="206.3" y="321.7" width="107.2" height="85.5" id="SVGID_3_">
		<g id="XMLID_5_" class="st3">
			<defs>
				<filter id="Adobe_OpacityMaskFilter_1_" filterUnits="userSpaceOnUse" x="206.3" y="321.7" width="107.2" height="85.5">
					<feFlood  style="flood-color:white;flood-opacity:1" result="back"/>
					<feBlend  in="SourceGraphic" in2="back" mode="normal"/>
				</filter>
			</defs>
			<mask maskUnits="userSpaceOnUse" x="206.3" y="321.7" width="107.2" height="85.5" id="SVGID_3_">
				<g id="XMLID_8_" class="st4">
				</g>
			</mask>
			
				<linearGradient id="SVGID_4_" gradientUnits="userSpaceOnUse" x1="-697.8419" y1="783.6899" x2="-696.9445" y2="782.4871" gradientTransform="matrix(75.1919 0 0 -59.9288 52696.3359 47288.1758)">
				<stop  offset="0" style="stop-color:#FFFFFF"/>
				<stop  offset="0.6697" style="stop-color:#FFFFFF"/>
				<stop  offset="0.8271" style="stop-color:#333333"/>
				<stop  offset="1" style="stop-color:#000000"/>
			</linearGradient>
			<path class="st5" d="M313.5,379.1c-3.7-0.7,8.5,5-15.2-1.3c-23.6-6.3-47.7-12.3-91.8-56.1c-2.7,13.8,11.9,35.3,26.9,49
				c40.6,28.3,13,15.1,74.8,36.4C313.2,397.3,313.5,388.5,313.5,379.1L313.5,379.1z"/>
		</g>
	</mask>
	
		<linearGradient id="SVGID_5_" gradientUnits="userSpaceOnUse" x1="-697.8419" y1="783.6899" x2="-696.9445" y2="782.4871" gradientTransform="matrix(75.1919 0 0 -59.9288 52696.3359 47288.1758)">
		<stop  offset="0" style="stop-color:#F70090"/>
		<stop  offset="0.6697" style="stop-color:#E50090"/>
		<stop  offset="0.8271" style="stop-color:#D6008F"/>
		<stop  offset="1" style="stop-color:#C10090"/>
	</linearGradient>
	<path class="st6" d="M313.5,379.1c-3.7-0.7,8.5,5-15.2-1.3c-23.6-6.3-47.7-12.3-91.8-56.1c-2.7,13.8,11.9,35.3,26.9,49
		c40.6,28.3,13,15.1,74.8,36.4C313.2,397.3,313.5,388.5,313.5,379.1L313.5,379.1z"/>
	<defs>
		<filter id="Adobe_OpacityMaskFilter_2_" filterUnits="userSpaceOnUse" x="171.5" y="117.9" width="77.4" height="42.2">
			<feFlood  style="flood-color:white;flood-opacity:1" result="back"/>
			<feBlend  in="SourceGraphic" in2="back" mode="normal"/>
		</filter>
	</defs>
	<mask maskUnits="userSpaceOnUse" x="171.5" y="117.9" width="77.4" height="42.2" id="SVGID_6_">
		<g id="XMLID_6_" class="st7">
			<defs>
				<filter id="Adobe_OpacityMaskFilter_3_" filterUnits="userSpaceOnUse" x="171.5" y="117.9" width="77.4" height="42.2">
					<feFlood  style="flood-color:white;flood-opacity:1" result="back"/>
					<feBlend  in="SourceGraphic" in2="back" mode="normal"/>
				</filter>
			</defs>
			<mask maskUnits="userSpaceOnUse" x="171.5" y="117.9" width="77.4" height="42.2" id="SVGID_6_">
				<g id="XMLID_10_" class="st8">
				</g>
			</mask>
			
				<linearGradient id="SVGID_7_" gradientUnits="userSpaceOnUse" x1="-693.1627" y1="777.2335" x2="-693.4567" y2="777.5409" gradientTransform="matrix(54.248 0 0 -29.6197 37823.1367 23170.248)">
				<stop  offset="0" style="stop-color:#272727"/>
				<stop  offset="0.4004" style="stop-color:#666666"/>
				<stop  offset="0.649" style="stop-color:#E3E3E3"/>
				<stop  offset="1" style="stop-color:#FFFFFF"/>
			</linearGradient>
			<path class="st9" d="M234.9,157c0,0,5.4-7.9,7.5-11.5c2.6-4.4,6.5-12.4,6.5-12.4s-41.4-13.5-51.5-15.1
				c-31.6,8.2-31.7,21.4-14,41.6C185.3,161.8,234.9,157,234.9,157L234.9,157z"/>
		</g>
	</mask>
	
		<linearGradient id="SVGID_8_" gradientUnits="userSpaceOnUse" x1="-693.1627" y1="777.2335" x2="-693.4567" y2="777.5409" gradientTransform="matrix(54.248 0 0 -29.6197 37823.1367 23170.248)">
		<stop  offset="0" style="stop-color:#B2008F"/>
		<stop  offset="0.4004" style="stop-color:#F70090"/>
		<stop  offset="0.649" style="stop-color:#F60090"/>
		<stop  offset="1" style="stop-color:#FF0090"/>
	</linearGradient>
	<path class="st10" d="M234.9,157c0,0,5.4-7.9,7.5-11.5c2.6-4.4,6.5-12.4,6.5-12.4s-41.4-13.5-51.5-15.1
		c-31.6,8.2-31.7,21.4-14,41.6C185.3,161.8,234.9,157,234.9,157L234.9,157z"/>
</g>
</svg>
