<?xml version="1.0" encoding="utf-8"?>
<!-- Generator: Adobe Illustrator 25.0.1, SVG Export Plug-In . SVG Version: 6.00 Build 0)  -->
<svg version="1.1" id="Calque_1" xmlns="http://www.w3.org/2000/svg" xmlns:xlink="http://www.w3.org/1999/xlink" x="0px" y="0px"
	 viewBox="0 0 48 48" style="enable-background:new 0 0 48 48;" xml:space="preserve">
<style type="text/css">
	.st0{fill:url(#SVGID_1_);}
	.st1{fill:url(#SVGID_2_);}
	.st2{fill:url(#SVGID_3_);}
</style>
<g transform="matrix(.569 0 0 .569 199.451 -82.735)">
	
		<linearGradient id="SVGID_1_" gradientUnits="userSpaceOnUse" x1="-18125.8945" y1="-12581.3174" x2="-18098.0117" y2="-12597.793" gradientTransform="matrix(0.1187 0 0 0.1187 1820.0818 1713.469)">
		<stop  offset="0" style="stop-color:#919DAA"/>
		<stop  offset="1" style="stop-color:#EEEDEE"/>
	</linearGradient>
	<path class="st0" d="M-297.9,184.7L-314,190l-14,6.2l-3.9,1c-1,0.9-2,1.9-3.2,2.9c-1.2,1.1-2.4,2-3.3,2.7c-1,0.8-2.4,2.2-3.2,3.2
		c-1.1,1.4-2,2.9-2.4,4c-0.7,2-0.3,4.1,0.9,6c1.7,2.4,5,4.9,8.8,6.6c2,0.9,5.3,2,7.7,2.6c4.1,1,12.1,2.2,16.5,2.3c0.9,0,2.1,0,2.1,0
		c0.1-0.1,0.8-1.4,1.6-3c2.7-5.5,4.6-10.7,5.7-15.1c0.6-2.7,1.1-6.2,1.5-10.5c0.1-1.2,0.1-5.1,0-6.5c-0.1-2.2-0.3-4-0.6-5.7
		c0-0.3-0.1-0.5,0-0.5c0,0,0.2-0.1,2.2-0.7L-297.9,184.7L-297.9,184.7L-297.9,184.7L-297.9,184.7z M-301.6,186.9
		c0.1,0,0.5,3.7,0.6,6.1c0,0.5,0,0.8,0,0.8c-0.1,0-2.1-1.2-3.5-2c-1.2-0.8-3.5-2.3-3.9-2.6c-0.1-0.1-0.1-0.1,0.9-0.4
		C-305.7,188.1-301.7,186.9-301.6,186.9z M-309.8,189.6c0.1,0,0.4,0.2,1.1,0.6c2.5,1.6,5.9,3.5,7.4,4.1c0.4,0.2,0.5,0.1-0.5,0.8
		c-2.2,1.5-5,3-8.4,4.5c-0.6,0.3-1.1,0.5-1.1,0.5c0,0,0-0.3,0.1-0.7c0.8-3,1.3-6.1,1.3-8.6C-309.9,189.6-309.9,189.6-309.8,189.6
		C-309.8,189.6-309.8,189.6-309.8,189.6L-309.8,189.6z M-311.5,190.2c0.1,0.1,0,2.8-0.1,3.5c-0.2,1.8-0.6,3.4-1.1,5.3
		c-0.1,0.4-0.3,0.8-0.3,0.9c0,0.1-1.7-1.6-2.3-2.2c-0.9-1.1-1.7-2.2-2.2-3.3c-0.3-0.5-0.7-1.6-0.7-1.7
		C-317.9,192.6-311.5,190.2-311.5,190.2L-311.5,190.2z M-319.4,193.3C-319.4,193.3-319.4,193.3-319.4,193.3c0.1,0,0.1,0.2,0.2,0.4
		c0.4,1.1,1.3,2.6,2,3.6c0.8,1.1,1.9,2.3,2.8,3c0.3,0.2,0.6,0.5,0.6,0.5c0.1,0.1,0.1,0.1-1.9,0.8c-2.3,0.9-4.8,1.8-7.7,2.7
		c-0.7,0.2-1.4,0.4-2.1,0.7c-0.1,0-0.1,0,0.2-0.5c1.4-2.2,3.6-6.6,4.8-9.7c0.2-0.5,0.4-1.1,0.5-1.2c0-0.2,0.1-0.2,0.3-0.3
		C-319.5,193.4-319.4,193.3-319.4,193.3L-319.4,193.3z M-321.8,194.3c0,0-0.6,1.3-1.2,2.5c-1.2,2.3-2.5,4.6-4.2,7.3
		c-0.3,0.5-0.6,0.9-0.6,1c-0.1,0.1-0.1,0.1-0.3-0.3c-0.4-0.8-0.8-1.9-0.9-2.8c-0.2-0.9-0.1-2.6,0.1-3.6c0.2-0.8,0.1-0.7,0.5-0.9
		C-326.9,196.7-321.9,194.3-321.8,194.3L-321.8,194.3z M-300.9,195.2v0.5c0,2.7-0.3,6.4-0.7,9.1c-0.1,0.5-0.1,0.9-0.1,0.9
		c0,0-0.4-0.1-0.8-0.2c-1.8-0.6-3.8-1.4-5.6-2.4c-1.2-0.6-2.9-1.7-2.8-1.8c0,0,0.5-0.3,1.1-0.6c2.4-1.2,4.7-2.6,6.7-3.9
		c0.7-0.5,1.9-1.3,2.1-1.5L-300.9,195.2L-300.9,195.2z M-331,198.8c0,0,0,0.1,0,0.5c0,0.3-0.1,0.9-0.1,1.3c-0.1,1.8,0.2,3.1,1.1,4.9
		c0.2,0.5,0.4,0.9,0.4,0.9c-0.1,0.1-8.1,2.4-10.7,3.1c-0.8,0.2-1.4,0.4-1.5,0.4c-0.1,0-0.1,0-0.1-0.2c0.3-1.8,1.6-4.1,3.5-6.1
		c1.3-1.3,2.3-2.1,4-3.1C-333.1,199.9-331.2,198.9-331,198.8C-331,198.8-331,198.8-331,198.8L-331,198.8z M-312,202.2
		c0,0,0.3,0.1,0.7,0.4c2.6,1.5,6.2,2.9,9.3,3.6l0.3,0.1l-0.4,0.2c-1.6,0.9-6.9,3.1-12.4,5.1c-0.8,0.3-1.6,0.6-1.7,0.6
		c-0.1,0.1-0.3,0.1-0.3,0.1c0,0,0.2-0.4,0.5-1c1.5-2.8,3.1-6.3,3.8-8.7C-312.1,202.4-312.1,202.2-312,202.2L-312,202.2z M-314,202.8
		c0,0-0.1,0.3-0.2,0.6c-1.1,2.6-2.4,5.4-4.2,8.5c-0.4,0.8-0.8,1.4-0.8,1.4c0,0-0.4-0.2-0.8-0.5c-2.6-1.6-4.9-3.5-6.4-5.4l-0.2-0.3
		l1.1-0.3c4-1.1,7.3-2.2,10.7-3.7C-314.4,203-314,202.8-314,202.8z M-302,207C-302,207-302,207-302,207c0,0.3-0.6,2.8-1.1,4.6
		c-0.4,1.5-0.8,2.7-1.5,4.8c-0.3,0.9-0.5,1.7-0.6,1.7c0,0-0.1,0-0.2,0c-3.6-0.7-6.8-1.6-9.9-2.8c-0.9-0.3-2.1-0.9-2.1-0.9
		c0,0,0.7-0.4,1.6-0.8c5.5-2.4,11.3-5.2,13.2-6.3C-302.2,207.1-302,207-302,207L-302,207z M-329.7,208c0,0-1.5,2.3-3.7,5.3
		c-0.8,1.1-1.6,2.3-2,2.8c-0.3,0.5-0.8,1.2-1.1,1.6l-0.5,0.8l-0.5-0.5c-0.6-0.5-1.8-1.7-2.3-2.3c-1-1.3-1.8-2.7-2-3.9
		c-0.1-0.6-0.1-0.9,0-0.9c0.2,0,3.4-0.8,6.5-1.5c1.7-0.4,3.6-0.9,4.4-1C-330.3,208.1-329.7,208-329.7,208L-329.7,208z M-328.1,208.6
		l0.4,0.4c1.8,2,3.5,3.4,5.7,4.7c0.4,0.2,0.7,0.4,0.7,0.4c-0.1,0.1-7.5,2.7-11,3.9c-1.9,0.7-3.5,1.2-3.5,1.2c0,0-0.1-0.1-0.2-0.2
		l-0.2-0.2l0.4-0.5c1.1-1.7,2.6-3.5,5.7-7.2L-328.1,208.6L-328.1,208.6z M-318.4,215.5c0,0,0.5,0.2,1.2,0.4c1.6,0.6,2.8,1,4.5,1.4
		c2.1,0.5,5.1,1,6.8,1.2c0.3,0,0.4,0,0.4,0.1c-0.1,0-1.9,0.6-3.2,1.1c-2.1,0.7-8.5,2.5-13.7,4c-1,0.3-1.8,0.5-1.8,0.5
		c-0.1,0-0.5-0.1-0.5-0.1c0,0,0.3-0.4,0.6-0.8c1.8-2.1,3.5-4.4,4.9-6.6C-318.8,216-318.4,215.5-318.4,215.5L-318.4,215.5z
		 M-320.6,215.6c0,0-0.9,1.4-2.4,3.8c-0.6,1-1.4,2.2-1.6,2.6c-0.2,0.4-0.6,1-0.8,1.3l-0.4,0.6l-0.2,0c-0.4-0.1-3.5-1.2-4.3-1.5
		c-1-0.4-2.1-0.9-2.8-1.3c-1-0.5-2.2-1.3-2.1-1.3c0,0,1.7-0.5,3.7-1c5.3-1.4,8.3-2.3,10.2-2.9C-320.9,215.6-320.6,215.6-320.6,215.6
		L-320.6,215.6z M-305.4,219.1L-305.4,219.1c0.1,0.1-1.9,5.6-2.6,7.3c-0.2,0.4-0.2,0.5-0.3,0.5c-0.2,0-3.1-0.4-4.8-0.7
		c-3-0.5-8.1-1.4-9.4-1.6l-0.3-0.1l1.8-0.4c3.9-0.9,5.8-1.3,7.7-1.9c2.4-0.7,4.8-1.6,7.2-2.8C-305.8,219.3-305.5,219.1-305.4,219.1
		L-305.4,219.1z"/>
	
		<linearGradient id="SVGID_2_" gradientUnits="userSpaceOnUse" x1="-18124.7949" y1="-13127.0488" x2="-18102.3594" y2="-13127.0488" gradientTransform="matrix(0.1187 0 0 0.1187 1820.0818 1713.469)">
		<stop  offset="0" style="stop-color:#949FAB"/>
		<stop  offset="1" style="stop-color:#DCDEE1"/>
	</linearGradient>
	<path class="st1" d="M-314.5,147.2c-0.3,0-4.6,1.5-7.4,2.7c-3.8,1.5-6.7,3-8.5,4.3c-0.7,0.5-1.5,1.3-1.6,1.6c0,0.1-0.1,0.3-0.1,0.4
		l1.6,1.5l3.9,1.2l9.2,1.7l10.6,1.8l0.1-0.9c0,0-0.1,0-0.1,0l-1.4-0.2l-0.3-0.5c-1.4-2.5-3-5.7-3.9-7.8c-0.7-1.6-1.4-3.5-1.8-4.9
		C-314.3,147.3-314.3,147.2-314.5,147.2L-314.5,147.2L-314.5,147.2L-314.5,147.2z M-314.7,147.8L-314.7,147.8c0,0,0.1,0.4,0.1,0.8
		c0.2,1.7,0.6,3.3,1.2,5.1c0.4,1.3,0.4,1.3-0.1,1.1c-1.2-0.3-6.8-1.3-10.8-1.9c-0.6-0.1-1.2-0.2-1.2-0.2c0,0,2.9-1.6,4.2-2.2
		C-319.6,149.8-315,147.9-314.7,147.8L-314.7,147.8z M-326.4,153.3l0.5,0.2c2.6,0.9,9.1,2.1,12.6,2.4c0.4,0,0.7,0.1,0.8,0.1
		c0,0-0.3,0.2-0.8,0.4c-1.7,0.9-3.6,1.9-4.9,2.7c-0.4,0.2-0.7,0.4-0.8,0.4c0,0-0.3,0-0.6-0.1l-0.5-0.1l-1.2-1.2
		c-2.1-2.1-3.8-3.7-4.5-4.3L-326.4,153.3z M-326.9,153.6l1.7,2.1c0.9,1.2,1.9,2.3,2.1,2.6c0.2,0.3,0.4,0.5,0.4,0.5
		c0,0-2.5-0.4-3.8-0.7c-1.3-0.3-1.9-0.5-2.7-0.7l-0.7-0.2V157c0-0.8,1-2,2.8-3.3L-326.9,153.6L-326.9,153.6z M-312.3,156.6
		c0,0,0.1,0.1,0.3,0.4c0.4,0.9,1.7,3.4,2,3.8c0.1,0.2,0.3,0.2-1.4-0.1c-4.1-0.7-5.4-0.9-5.4-0.9c0,0,0.1-0.1,0.3-0.2
		c1.3-0.7,2.6-1.6,3.7-2.6C-312.7,156.8-312.4,156.6-312.3,156.6C-312.4,156.6-312.3,156.6-312.3,156.6L-312.3,156.6z"/>
	
		<radialGradient id="SVGID_3_" cx="-7269.8296" cy="-12608.1328" r="29.7875" gradientTransform="matrix(-0.114 -1.712736e-02 3.463960e-02 -0.228 -700.5549 -2823.4695)" gradientUnits="userSpaceOnUse">
		<stop  offset="0" style="stop-color:#E7382F"/>
		<stop  offset="1" style="stop-color:#AA1F22"/>
	</radialGradient>
	<path class="st2" d="M-331.9,155.6c0,0-0.3,0.4,0,1.1c0.2,0.4,0.6,0.9,1.1,1.3c0,0,5.4,5.3,6.1,6c3,3.5,4.3,6.9,4.4,11.6
		c0.1,3-0.5,5.7-1.9,8.7c-2.5,5.5-7.9,11.6-16.1,18.4l1.2-0.4c0.8-0.6,1.8-1.2,4.3-2.6c5.7-3.1,12.2-6,20.1-9
		c11.4-4.3,30.1-9.3,40.8-10.9l1.1-0.2l-0.2-0.3c-1-1.5-1.6-2.4-2.4-3.4c-2.3-2.9-5.2-5.2-8.6-7.2c-4.8-2.7-10.9-4.7-18.7-6.3
		c-1.5-0.3-4.7-0.9-7.3-1.3c-5.6-0.9-9.2-1.5-13.1-2.1c-1.4-0.2-3.6-0.6-5-0.9c-0.7-0.2-2.1-0.5-3.2-0.9
		C-330.4,157-331.6,156.6-331.9,155.6L-331.9,155.6z M-328.7,158.6c0,0,0.2,0.1,0.5,0.1c0.5,0.2,1.1,0.3,1.8,0.5
		c0.5,0.1,1.1,0.3,1.6,0.4c0.7,0.2,1.3,0.4,1.3,0.4c0.1,0.1,1.3,4,1.7,5.5c0.2,0.6,0.3,1.1,0.3,1.1c0,0-0.1-0.2-0.3-0.5
		c-1.4-2.5-3.7-5-6.3-7.1C-328.5,158.8-328.7,158.6-328.7,158.6L-328.7,158.6z M-322.8,160.3c0.1,0,0.3,0,0.7,0.1
		c2.1,0.5,5.8,1.2,8.1,1.6c0.4,0.1,0.7,0.1,0.7,0.2c0,0-0.1,0.1-0.3,0.2c-0.4,0.2-2,1.2-2.6,1.5c-1.4,0.9-2.6,1.9-3.4,2.7
		c-0.4,0.4-0.7,0.6-0.7,0.6s-0.1-0.2-0.1-0.5c-0.4-1.7-1.3-4.2-2.2-6C-322.7,160.5-322.8,160.3-322.8,160.3
		C-322.8,160.3-322.8,160.3-322.8,160.3L-322.8,160.3z M-312.2,162.3c0.1,0,0.2,0.4,0.4,1.3c0.5,1.8,0.7,3.7,0.6,5.6
		c0,0.5,0,1-0.1,1l0,0.1l-0.6-0.2c-1.3-0.4-3.4-1-5.2-1.5c-1-0.3-1.9-0.5-1.9-0.6c0-0.1,1.5-1.6,2.2-2.2
		C-315.7,164.8-312.3,162.2-312.2,162.3L-312.2,162.3z M-311.4,162.4c0,0,5,0.8,7.3,1.3c1.7,0.3,4.1,0.8,4.3,0.9
		c0.1,0-0.2,0.2-1,0.5c-3.2,1.4-5.6,2.7-8,4.3c-0.6,0.4-1.1,0.8-1.2,0.8s0-0.4,0-0.8c0-2.3-0.5-4.6-1.3-6.6
		C-311.3,162.6-311.4,162.4-311.4,162.4z M-298.5,165c0,0-0.1,1-0.3,1.6c-0.4,1.8-1.6,4.5-3.1,7c-0.3,0.5-0.5,0.8-0.5,0.8
		c0,0-0.4-0.2-0.7-0.4c-1.4-0.8-3-1.6-4.8-2.3c-0.5-0.2-0.9-0.4-0.9-0.4c-0.1-0.1,3.8-2.7,5.9-3.9
		C-301.2,166.4-298.5,164.9-298.5,165L-298.5,165z M-297.5,165.1c0.1,0,2.3,0.6,3.5,0.9c2.9,0.9,6.1,2.1,8.3,3l0.9,0.4l-0.6,0.1
		c-5.2,1.2-9.7,2.6-14,4.3c-0.4,0.1-0.7,0.3-0.7,0.3c0,0,0.1-0.3,0.3-0.6c1.3-2.8,2.1-5.6,2.3-8.1
		C-297.6,165.3-297.6,165.1-297.5,165.1L-297.5,165.1z M-319.6,170.2c0,0,1.7,0.4,2.6,0.6c1.4,0.4,4.3,1.4,4.3,1.4
		c0,0-0.3,0.3-0.7,0.6c-1.6,1.3-3.1,2.7-5,4.5c-0.5,0.5-1,0.9-1,0.9c0,0,0-0.1,0-0.2c0.3-2,0.2-4.7-0.2-7.3
		C-319.6,170.5-319.6,170.2-319.6,170.2z M-284,170.2c0,0-0.8,1.3-1.3,2c-0.7,1-1.8,2.4-4.2,5.5c-1.3,1.6-2.7,3.4-3.2,4
		c-0.5,0.6-0.9,1.1-0.9,1.1c0,0-0.2-0.2-0.3-0.5c-1.4-2-3-3.8-4.9-5.4c-0.4-0.3-0.8-0.6-0.9-0.7c-0.1-0.1-0.2-0.2-0.2-0.2
		c0,0,2.1-0.9,3.6-1.6c2.7-1.1,6.5-2.5,9.3-3.3C-285.6,170.6-284.1,170.2-284,170.2L-284,170.2z M-283.1,170.4c0,0,0.3,0.1,0.7,0.3
		c3,1.7,5.9,3.9,8.1,6.1c0.6,0.6,2.2,2.3,2.2,2.3c0,0-0.6,0-1.2,0.1c-5.1,0.4-11.7,1.5-18,3c-0.4,0.1-0.8,0.2-0.8,0.2
		c0,0,0.5-0.5,1-1c3.7-3.6,5.4-5.8,7.4-9.8C-283.4,171-283.1,170.5-283.1,170.4C-283.1,170.4-283.1,170.4-283.1,170.4L-283.1,170.4z
		 M-310.2,173.2c0.2,0,1.8,0.8,2.9,1.4c1.1,0.5,2.7,1.4,2.8,1.5c0,0-0.6,0.3-1.3,0.7c-2.3,1.1-4.2,2.2-6.3,3.5
		c-0.6,0.4-1.1,0.6-1.1,0.6c0,0,0,0,0.3-0.6c1.1-2,2-4.4,2.5-6.7C-310.3,173.3-310.2,173.2-310.2,173.2L-310.2,173.2z M-311.8,173.5
		c0,0-0.4,1.5-0.6,2.3c-0.5,1.5-1.3,3.5-2.2,4.9c-0.2,0.3-0.5,0.8-0.6,1.1l-0.3,0.5l-0.7-0.7c-0.8-0.8-1.4-1.2-2.3-1.7
		c-0.3-0.2-0.6-0.3-0.6-0.3c0-0.1,2.1-2,3.7-3.3C-314.2,175.4-311.8,173.5-311.8,173.5L-311.8,173.5z M-302.1,177.5l0.6,0.4
		c1.4,0.9,3,2.1,4.2,3.1c0.7,0.6,2,1.8,2.3,2.1l0.1,0.2l-1,0.3c-5.6,1.5-9.9,2.9-14.9,4.8c-0.6,0.2-1,0.4-1.1,0.4
		c-0.1,0-0.1,0.1,1.1-1.1c3.2-3,6.1-6.2,8.2-9.4L-302.1,177.5L-302.1,177.5z M-304.7,178.1c0,0-1.6,2.4-2.6,3.7
		c-1.2,1.6-3.3,4.2-4.8,6c-0.6,0.7-1.1,1.3-1.2,1.3c0,0,0-0.2,0-0.5c0-1.5-0.4-3-1-4.4c-0.3-0.6-0.3-0.7-0.3-0.8
		c0.2-0.2,3.8-2.2,6-3.4C-307,179.3-304.7,178.1-304.7,178.1L-304.7,178.1z M-320,181.9c0,0,0.3,0.1,0.6,0.3
		c0.8,0.4,1.5,0.9,2.1,1.4c0,0-0.3,0.3-0.7,0.6c-1.2,0.8-2.9,2.2-3.9,3c-1.1,0.9-1.1,0.9-1,0.7c0.8-1.2,1.2-1.9,1.6-2.8
		c0.4-0.8,0.8-1.7,1-2.5C-320.2,182.2-320,181.9-320,181.9L-320,181.9z M-315.9,185.1c0.1,0,0.1,0.1,0.5,0.6c0.7,1,1.2,2.4,1.4,3.5
		l0,0.2l-1.7,0.6c-3,1.2-5.7,2.3-7.6,3.1c-0.5,0.2-1.4,0.7-2,1c-0.6,0.3-1.1,0.5-1.1,0.5s0.4-0.3,0.8-0.6c3.6-2.6,6.8-5.5,9.1-8.4
		C-316.2,185.4-316,185.1-315.9,185.1L-315.9,185.1L-315.9,185.1z M-317.8,185.6c0,0-1.3,1.6-2.3,2.6c-2.3,2.4-4.7,4.3-7.6,6.1
		c-0.4,0.2-0.7,0.4-0.7,0.5c-0.1,0,0-0.1,1.3-1.4c0.8-0.9,1.4-1.6,2.1-2.5c0.5-0.6,0.5-0.7,1.2-1.2
		C-322,188.3-317.9,185.5-317.8,185.6z"/>
</g>
</svg>
